<svg xmlns="http://www.w3.org/2000/svg" version="1.0" width="512.000000pt" height="512.000000pt" viewBox="0 0 512.000000 512.000000" preserveAspectRatio="xMidYMid meet">

<g transform="translate(0.000000,512.000000) scale(0.100000,-0.100000)" fill="#333333" stroke="none">
<path d="M254 4591 c-61 -28 -89 -73 -89 -143 0 -63 19 -97 75 -135 33 -23 35 -23 432 -23 447 0 447 0 494 69 48 71 27 169 -49 225 -28 20 -40 21 -425 24 -371 2 -400 1 -438 -17z" fill="#333333"/>
<path d="M1764 4599 c-18 -5 -46 -25 -62 -44 -51 -57 -55 -144 -11 -206 38 -54 66 -59 301 -59 116 0 208 -4 203 -8 -6 -5 -229 -100 -497 -210 l-488 -202 -449 0 c-246 0 -463 -3 -481 -6 -45 -9 -96 -61 -109 -112 -17 -61 -4 -109 40 -156 l38 -41 488 -5 488 -5 740 -288 c407 -159 775 -302 818 -319 l77 -29 0 -1000 c0 -549 -3 -999 -7 -999 -4 0 -180 67 -392 149 -212 82 -567 220 -789 305 l-402 156 -356 0 c-308 0 -361 -2 -390 -16 -111 -53 -112 -234 -1 -285 38 -17 69 -19 364 -19 l323 0 882 -342 c696 -270 893 -342 928 -342 35 0 200 60 730 266 377 146 775 301 885 343 243 94 267 106 297 147 l23 33 3 1218 c2 1205 2 1218 -18 1257 -11 22 -32 47 -46 56 -21 14 -1446 610 -1757 735 l-97 39 -623 -1 c-342 0 -636 -5 -653 -10z m1931 -606 c366 -152 662 -279 658 -283 -4 -4 -306 -123 -671 -264 l-663 -256 -437 169 c-240 93 -538 208 -662 256 -123 47 -230 89 -236 93 -12 6 1305 561 1334 562 6 0 311 -124 677 -277z m943 -1524 l-3 -1000 -705 -273 c-388 -150 -715 -276 -727 -280 l-23 -7 0 1000 0 999 143 56 c482 188 1303 505 1310 506 4 0 6 -450 5 -1001z" fill="#333333"/>
<path d="M240 2588 c-48 -33 -72 -70 -77 -120 -7 -58 23 -118 74 -149 l38 -24 675 0 c657 0 676 1 709 20 49 29 73 67 79 123 5 57 -20 112 -66 147 -26 19 -45 20 -713 23 l-685 2 -34 -22z" fill="#333333"/>
</g>
</svg>